HIERARCHY
ROOT Joint1
{
	OFFSET 0.000000 0.000000 0.000000
	CHANNELS 6 Xposition Yposition Zposition Xrotation Yrotation Zrotation
	JOINT Joint2
	{
		OFFSET -0.000000 0.000000 1.456275
		CHANNELS 6 Xposition Yposition Zposition Xrotation Yrotation Zrotation
		JOINT Joint3
		{
			OFFSET -0.000000 0.000002 1.471446
			CHANNELS 6 Xposition Yposition Zposition Xrotation Yrotation Zrotation
			JOINT Joint4
			{
				OFFSET 0.625745 0.000000 0.917755
				CHANNELS 6 Xposition Yposition Zposition Xrotation Yrotation Zrotation
				JOINT Joint5
				{
					OFFSET -0.629534 0.000001 0.940221
					CHANNELS 6 Xposition Yposition Zposition Xrotation Yrotation Zrotation
					JOINT Joint6
					{
						OFFSET -0.000001 0.113772 1.960660
						CHANNELS 6 Xposition Yposition Zposition Xrotation Yrotation Zrotation
						JOINT Joint7
						{
							OFFSET -0.669733 -0.113771 0.388340
							CHANNELS 6 Xposition Yposition Zposition Xrotation Yrotation Zrotation
							End Site
							{
								OFFSET 0.005509 0.005509 0.438980
							}
						}
					}
				}
			}
		}
	}
}
MOTION
Frames: 12
Frame Time: 0.041667
0.000000 0.000000 0.000000 -0.000000 1.019410 -62.215333 -0.000000 -0.000000 1.456275 -0.000005 -62.671569 -0.000004 -0.000000 0.000002 1.471446 -0.000008 -1.133454 69.764467 0.625745 0.000001 0.917755 -0.000002 73.333678 0.000006 -0.629534 0.000001 0.940221 0.000003 1.709736 -29.762611 -0.000001 0.113772 1.960661 -88.303882 130.975025 0.000005 -0.669733 -0.113771 0.388340 -0.491365 3.543389 122.835679 
0.000000 0.000000 0.000000 -0.000000 1.019410 -64.380072 -0.000000 0.000000 1.456275 0.000003 -63.287290 -0.000003 -0.000000 0.000002 1.471446 -0.000004 -1.133458 72.193283 0.625745 0.000000 0.917755 0.000003 71.186800 0.000003 -0.629534 0.000001 0.940221 0.000001 1.709741 -30.797740 -0.000001 0.113772 1.960660 -88.303875 132.401892 0.000007 -0.669732 -0.113772 0.388341 -0.484035 3.541788 122.413341 
0.000000 0.000000 0.000000 -0.000000 1.019410 -66.537989 -0.000000 -0.000000 1.456275 0.000003 -63.901071 0.000000 -0.000000 0.000002 1.471446 -0.000005 -1.133455 74.614421 0.625745 0.000000 0.917755 -0.000011 69.046683 0.000003 -0.629533 0.000001 0.940221 0.000000 1.709737 -31.829597 -0.000000 0.113772 1.960661 -88.303875 133.824265 -0.000000 -0.669733 -0.113771 0.388340 -0.476744 3.540134 121.992370 
0.000000 0.000000 0.000000 -0.000000 1.019410 -68.403197 -0.000000 -0.000000 1.456275 -0.000003 -64.431592 -0.000003 -0.000001 0.000002 1.471446 -0.000004 -1.133453 76.707163 0.625744 0.000000 0.917755 -0.000001 67.196842 0.000001 -0.629534 0.000001 0.940221 -0.000001 1.709739 -32.721493 -0.000000 0.113772 1.960660 -88.303882 135.053713 -0.000003 -0.669733 -0.113771 0.388340 -0.470449 3.538664 121.628457 
0.000000 0.000000 0.000000 -0.000000 1.019410 -69.806835 -0.000000 0.000000 1.456275 0.000001 -64.830831 0.000001 -0.000000 0.000002 1.471446 -0.000006 -1.133456 78.282021 0.625744 0.000000 0.917755 -0.000006 65.804788 0.000001 -0.629533 0.000001 0.940221 0.000001 1.709741 -33.392679 -0.000000 0.113772 1.960660 -88.303875 135.978917 -0.000000 -0.669733 -0.113771 0.388339 -0.465722 3.537529 121.354621 
0.000000 0.000000 0.000000 -0.000000 1.019410 -71.020594 -0.000000 -0.000000 1.456275 -0.000000 -65.176062 -0.000002 -0.000001 0.000002 1.471446 -0.000006 -1.133454 79.643837 0.625745 0.000000 0.917755 0.000001 64.601042 -0.000001 -0.629534 0.000001 0.940220 0.000001 1.709738 -33.973060 -0.000001 0.113772 1.960660 -88.303882 136.778964 0.000001 -0.669733 -0.113771 0.388339 -0.461631 3.536528 121.117832 
0.000000 0.000000 0.000000 -0.000000 1.019410 -72.426322 -0.000000 0.000000 1.456275 -0.000004 -65.575895 -0.000000 -0.000000 0.000002 1.471446 -0.000003 -1.133455 81.221044 0.625745 0.000000 0.917755 -0.000007 63.206905 0.000002 -0.629534 0.000001 0.940221 0.000002 1.709734 -34.645250 -0.000001 0.113772 1.960661 -88.303882 137.705534 0.000005 -0.669733 -0.113771 0.388340 -0.456909 3.535351 120.843586 
0.000000 0.000000 0.000000 -0.000000 1.019410 -74.294420 -0.000000 0.000000 1.456275 -0.000001 -66.107249 0.000001 -0.000000 0.000002 1.471446 -0.000003 -1.133454 83.317011 0.625744 0.000001 0.917755 -0.000007 61.354223 0.000001 -0.629534 0.000001 0.940221 0.000002 1.709741 -35.538523 -0.000001 0.113772 1.960660 -88.303875 138.936880 -0.000001 -0.669733 -0.113771 0.388340 -0.450636 3.533754 120.479141 
0.000000 0.000000 0.000000 -0.000000 1.019410 -76.449447 -0.000000 0.000000 1.456275 -0.000001 -66.720197 0.000001 -0.000001 0.000002 1.471445 -0.000006 -1.133453 85.734925 0.625745 0.000000 0.917755 -0.000001 59.216968 0.000003 -0.629534 0.000001 0.940221 0.000001 1.709733 -36.569000 -0.000001 0.113772 1.960660 -88.303882 140.357355 0.000001 -0.669733 -0.113771 0.388340 -0.443415 3.531857 120.058716 
0.000000 0.000000 0.000000 -0.000000 1.019410 -78.604494 -0.000000 0.000000 1.456275 -0.000001 -67.333166 0.000002 -0.000001 0.000002 1.471446 -0.000004 -1.133453 88.152867 0.625745 0.000000 0.917755 -0.000001 57.079686 0.000002 -0.629534 0.000001 0.940221 0.000001 1.709738 -37.599491 -0.000001 0.113772 1.960660 -88.303875 141.777843 0.000001 -0.669733 -0.113771 0.388340 -0.436207 3.529910 119.638277 
0.000000 0.000000 0.000000 -0.000000 1.019410 -80.472565 -0.000000 0.000000 1.456275 0.000001 -67.864500 0.000001 -0.000001 0.000002 1.471446 -0.000005 -1.133453 90.248806 0.625745 0.000001 0.917755 -0.000003 55.227014 0.000002 -0.629534 0.000001 0.940221 0.000001 1.709739 -38.492757 -0.000001 0.113772 1.960660 -88.303875 143.009176 -0.000004 -0.669733 -0.113771 0.388340 -0.429971 3.528178 119.273845 
0.000000 0.000000 0.000000 -0.000000 1.019410 -81.878149 -0.000000 -0.000000 1.456275 0.000000 -68.264292 0.000000 -0.000000 0.000002 1.471446 -0.000006 -1.133455 91.825849 0.625745 0.000000 0.917755 -0.000000 53.833020 0.000002 -0.629533 0.000001 0.940221 0.000000 1.709739 -39.164875 -0.000001 0.113772 1.960661 -88.303882 143.935664 0.000003 -0.669733 -0.113771 0.388340 -0.425286 3.526849 118.999627 
